<svg width="80" height="80" viewBox="0 0 80 80" fill="none" xmlns="http://www.w3.org/2000/svg">
<path d="M0.810791 69.73V60.2705H19.7297V79.1894H0.810791V69.73ZM17.027 69.73V62.9732H3.51349V76.4867H17.027V69.73ZM6.2162 69.73V65.6759H14.3243V73.784H6.2162V69.73ZM25.1351 77.8381V76.4867H22.4324V71.0813H25.1351V62.9732H27.8378V60.2705H22.4324V57.5678H11.6216V54.8651H14.3243V52.1624H8.9189V57.5678H6.2162V54.8651H0.810791V52.1624H6.2162V46.757H3.51349V49.4597H0.810791V44.0543H6.2162V46.757H8.9189V49.4597H11.6216V46.757H14.3243V49.4597H19.7297V46.757H17.027V44.0543H8.9189V41.3516H17.027V38.6489H8.9189V35.9462H6.2162V38.6489H0.810791V30.5408H3.51349V33.2435H19.7297V30.5408H17.027V27.8381H11.6216V30.5408H8.9189V27.8381H3.51349V22.4327H8.9189V27.8381H11.6216V25.1354H17.027V22.4327H19.7297V25.1354H17.027V27.8381H19.7297V30.5408H22.4324V25.1354H25.1351V22.4327H22.4324V14.3245H27.8378V17.0273H30.5405V19.73H27.8378V22.4327H30.5405V38.6489H25.1351V35.9462H22.4324V38.6489H19.7297V41.3516H17.027V44.0543H19.7297V46.757H22.4324V49.4597H27.8378V46.757H25.1351V44.0543H22.4324V41.3516H27.8378V46.757H30.5405V41.3516H33.2432V46.757H35.9459V38.6489H38.6486V35.9462H41.3513V38.6489H38.6486V41.3516H41.3513V44.0543H49.4594V41.3516H46.7567V38.6489H44.054V33.2435H41.3513V30.5408H44.054V27.8381H46.7567V25.1354H44.054V22.4327H41.3513V27.8381H38.6486V25.1354H35.9459V27.8381H33.2432V25.1354H35.9459V22.4327H33.2432V14.3245H30.5405V11.6218H33.2432V14.3245H35.9459V3.51374H38.6486V8.91914H44.054V6.21644H41.3513V0.811035H46.7567V3.51374H44.054V6.21644H49.4594V3.51374H52.1621V0.811035H57.5676V8.91914H52.1621V6.21644H49.4594V11.6218H52.1621V19.73H54.8648V17.0273H57.5676V30.5408H62.973V27.8381H60.2703V22.4327H65.6757V30.5408H71.0811V27.8381H68.3784V22.4327H71.0811V27.8381H73.7838V25.1354H79.1892V30.5408H76.4865V27.8381H73.7838V30.5408H71.0811V38.6489H73.7838V41.3516H71.0811V44.0543H65.6757V46.757H62.973V49.4597H57.5676V46.757H54.8648V44.0543H52.1621V49.4597H54.8648V52.1624H62.973V54.8651H68.3784V52.1624H65.6757V49.4597H68.3784V46.757H71.0811V49.4597H73.7838V52.1624H76.4865V46.757H73.7838V44.0543H79.1892V52.1624H76.4865V57.5678H79.1892V62.9732H76.4865V71.0813H79.1892V73.784H71.0811V79.1894H62.973V76.4867H68.3784V73.784H62.973V68.3786H60.2703V73.784H57.5676V76.4867H60.2703V79.1894H54.8648V71.0813H52.1621V76.4867H49.4594V73.784H46.7567V62.9732H49.4594V71.0813H52.1621V62.9732H54.8648V57.5678H52.1621V54.8651H49.4594V52.1624H52.1621V49.4597H49.4594V46.757H46.7567V57.5678H49.4594V60.2705H44.054V65.6759H41.3513V71.0813H44.054V73.784H41.3513V76.4867H46.7567V79.1894H41.3513V76.4867H38.6486V73.784H35.9459V79.1894H25.1351V77.8381ZM33.2432 73.784V71.0813H35.9459V62.9732H30.5405V65.6759H33.2432V68.3786H27.8378V71.0813H25.1351V73.784H27.8378V76.4867H33.2432V73.784ZM71.0811 71.0813V68.3786H73.7838V62.9732H76.4865V60.2705H73.7838V52.1624H71.0811V60.2705H73.7838V62.9732H71.0811V65.6759H68.3784V73.784H71.0811V71.0813ZM57.5676 69.73V68.3786H54.8648V71.0813H57.5676V69.73ZM41.3513 64.3246V62.9732H38.6486V65.6759H41.3513V64.3246ZM65.6757 61.6218V57.5678H57.5676V65.6759H65.6757V61.6218ZM60.2703 61.6218V60.2705H62.973V62.9732H60.2703V61.6218ZM38.6486 58.9191V57.5678H44.054V54.8651H38.6486V52.1624H35.9459V54.8651H38.6486V57.5678H33.2432V54.8651H30.5405V57.5678H27.8378V54.8651H25.1351V52.1624H22.4324V49.4597H19.7297V52.1624H17.027V54.8651H19.7297V52.1624H22.4324V54.8651H25.1351V57.5678H27.8378V60.2705H38.6486V58.9191ZM30.5405 50.811V49.4597H27.8378V52.1624H30.5405V50.811ZM44.054 49.4597V46.757H38.6486V49.4597H41.3513V52.1624H44.054V49.4597ZM60.2703 45.4056V44.0543H57.5676V46.757H60.2703V45.4056ZM65.6757 42.7029V41.3516H68.3784V33.2435H65.6757V35.9462H62.973V38.6489H60.2703V35.9462H54.8648V33.2435H52.1621V30.5408H54.8648V22.4327H52.1621V19.73H49.4594V17.0273H46.7567V19.73H44.054V11.6218H46.7567V14.3245H49.4594V11.6218H46.7567V8.91914H44.054V11.6218H41.3513V19.73H44.054V22.4327H46.7567V19.73H49.4594V27.8381H46.7567V30.5408H44.054V33.2435H46.7567V38.6489H49.4594V35.9462H54.8648V38.6489H57.5676V41.3516H62.973V44.0543H65.6757V42.7029ZM62.973 40.0002V38.6489H65.6757V41.3516H62.973V40.0002ZM19.7297 37.2975V35.9462H22.4324V33.2435H19.7297V35.9462H17.027V38.6489H19.7297V37.2975ZM27.8378 31.8921V30.5408H25.1351V33.2435H27.8378V31.8921ZM27.8378 18.3786V17.0273H25.1351V19.73H27.8378V18.3786ZM38.6486 17.0273V14.3245H35.9459V19.73H38.6486V17.0273ZM54.8648 4.86509V3.51374H52.1621V6.21644H54.8648V4.86509ZM76.4865 77.8381V76.4867H79.1892V79.1894H76.4865V77.8381ZM76.4865 38.6489V35.9462H73.7838V33.2435H76.4865V35.9462H79.1892V41.3516H76.4865V38.6489ZM0.810791 10.2705V0.811035H19.7297V19.73H0.810791V10.2705ZM17.027 10.2705V3.51374H3.51349V17.0273H17.027V10.2705ZM6.2162 10.2705V6.21644H14.3243V14.3245H6.2162V10.2705ZM60.2703 10.2705V0.811035H79.1892V19.73H60.2703V10.2705ZM76.4865 10.2705V3.51374H62.973V17.0273H76.4865V10.2705ZM65.6757 10.2705V6.21644H73.7838V14.3245H65.6757V10.2705ZM22.4324 10.2705V8.91914H25.1351V11.6218H22.4324V10.2705ZM27.8378 7.56779V6.21644H25.1351V0.811035H27.8378V3.51374H30.5405V0.811035H33.2432V3.51374H30.5405V8.91914H27.8378V7.56779Z" fill="black"/>
</svg>
