<svg width="641" height="401" viewBox="0 0 641 401" fill="none" xmlns="http://www.w3.org/2000/svg">
<g clip-path="url(#clip0_2_807)">
<rect x="410.004" y="5.60791" width="350" height="222" rx="16" transform="rotate(90 410.004 5.60791)" fill="#00252E"/>
<path opacity="0.53" d="M409.889 113.002L410.004 334.566C410.004 336.487 409.743 338.357 409.251 340.122L310.712 241.834C307.763 238.9 305.86 235.318 305.054 231.548C303.527 224.802 305.41 217.419 310.702 212.156L409.889 113.002Z" fill="url(#paint0_linear_2_807)"/>
<path opacity="0.53" d="M266.314 260.587L362.5 356.524L207.162 356.608C195.584 356.618 186.193 347.241 186.182 335.691L186.172 310.994L236.591 260.597C244.78 252.389 258.104 252.379 266.314 260.587Z" fill="url(#paint1_linear_2_807)"/>
<path opacity="0.53" d="M188.088 174.217L218.302 204.344C226.523 212.532 226.533 225.836 218.323 234.023L188.14 264.192L188.088 174.217Z" fill="url(#paint2_linear_2_807)"/>
<path opacity="0.53" d="M207.963 3.70211L368.635 3.61857C368.855 9.24722 366.826 14.9594 362.506 19.2618L234.998 146.716C226.798 154.924 213.464 154.934 205.254 146.737L187.057 128.587L187.004 24.6503C187.004 20.5254 188.207 16.6512 190.299 13.4139C194.011 7.56595 200.527 3.70211 207.963 3.70211Z" fill="url(#paint3_linear_2_807)"/>
<path d="M217.502 34.3039L217.502 37.8048C217.502 38.8995 217.806 39.7232 218.883 40.1892L234.206 46.9092L234.206 42.1402C234.206 42.1402 232.151 41.349 231.716 41.1864L231.716 35.3769C232.292 35.236 234.206 34.8241 234.206 34.8241L234.206 30.6079L217.502 34.3039ZM228.29 39.8858C227.333 39.5172 223.603 38.1082 223.603 38.1082C223.603 38.1082 222.624 37.718 222.026 37.4904L223.461 37.187C223.461 37.187 227.442 36.309 228.29 36.1356L228.29 39.8858Z" fill="white"/>
<path d="M222.145 52.9571C222.918 52.9679 223.44 51.9816 224.212 50.3992C225.408 47.7871 226.844 46.5731 228.758 46.6056C232.227 46.6273 234.467 49.7272 234.467 54.4853C234.446 56.523 234.032 58.4739 233.575 59.5361L229.834 58.8967L230.095 58.3222C230.715 56.8373 230.976 55.8618 230.976 54.0518C230.976 52.7511 230.465 51.353 229.345 51.3313C228.605 51.3204 228.083 51.9274 227.268 53.6833C226.474 55.4175 225.136 57.6936 222.744 57.6611C219.503 57.6394 217.219 54.4745 217.219 49.9981C217.219 48.2423 217.589 46.8224 217.926 45.9337L221.536 46.5514L221.352 46.9633C221.014 47.8087 220.699 48.8818 220.71 50.3667C220.699 52.1334 221.449 52.9571 222.145 52.9571Z" fill="white"/>
<path d="M217.513 59.5578L234.206 62.3867L234.206 66.9172L230.965 66.3645L225.636 65.4649L217.523 64.0992L217.513 59.5578Z" fill="white"/>
<path d="M226.115 75.8375C222.254 77.3549 219.046 80.975 217.719 86.4485L217.382 86.3943L217.382 79.36C217.426 78.4062 217.719 77.6367 218.741 77.3765L226.115 75.8375Z" fill="white"/>
<path d="M217.534 65.9309L234.195 73.0736L234.195 77.8642L220.275 81.9287C222.156 79.0131 225.136 76.5311 227.203 75.6532L228.932 75.1762L217.534 70.7324L217.534 65.9309Z" fill="white"/>
<path d="M216.148 296.459L235.506 296.448C237.79 296.448 239.66 298.313 239.66 300.578L239.682 327.219C239.682 329.506 237.811 331.37 235.538 331.37L216.18 331.392C213.886 331.392 212.026 329.528 212.026 327.252L212.004 300.6C212.004 298.323 213.853 296.459 216.148 296.459Z" fill="#F6C859"/>
<path d="M235.984 317.92C235.984 318.071 235.908 318.212 235.767 318.277C235.571 318.375 235.321 318.299 235.223 318.104C234.919 317.518 234.353 316.727 233.385 316.261C232.145 315.676 230.797 315.828 230.677 316.077C230.645 316.142 230.775 316.38 230.851 316.532C231.047 316.912 231.319 317.443 231.101 318.05C230.895 318.646 230.362 318.938 230.101 319.079C228.415 320.001 224.043 320.282 221.868 319.318C221.15 318.993 220.715 318.559 220.585 318.017C220.454 317.464 220.683 317.009 220.879 316.651C221.031 316.359 221.096 316.207 221.042 316.109C220.813 315.73 219.421 315.741 218.323 316.272C217.344 316.738 216.779 317.529 216.485 318.115C216.387 318.31 216.137 318.396 215.941 318.288C215.745 318.19 215.658 317.941 215.767 317.746C216.126 317.052 216.8 316.099 217.986 315.546C219.149 314.993 221.161 314.733 221.749 315.698C222.042 316.185 221.803 316.651 221.618 317.02C221.477 317.302 221.335 317.573 221.401 317.833C221.488 318.19 221.89 318.429 222.216 318.581C224.119 319.426 228.252 319.177 229.731 318.375C229.981 318.234 230.253 318.071 230.351 317.789C230.449 317.518 230.329 317.258 230.144 316.901C229.959 316.543 229.764 316.153 229.959 315.73C230.405 314.82 232.352 314.885 233.744 315.535C234.929 316.099 235.604 317.042 235.963 317.735C235.974 317.8 235.984 317.865 235.984 317.92Z" fill="#7D662D"/>
<path d="M222.597 319.144L222.597 326.417C222.597 326.645 222.412 326.818 222.194 326.818C221.977 326.818 221.792 326.645 221.792 326.428L221.792 319.155C221.792 318.928 221.977 318.754 222.194 318.754C222.412 318.743 222.597 318.917 222.597 319.144Z" fill="#7D662D"/>
<path d="M229.905 319.144L229.905 326.417C229.905 326.645 229.72 326.818 229.503 326.818C229.274 326.818 229.1 326.634 229.1 326.417L229.1 319.144C229.1 318.917 229.285 318.743 229.503 318.743C229.72 318.733 229.905 318.917 229.905 319.144Z" fill="#7D662D"/>
<path d="M235.974 309.433C235.974 309.498 235.963 309.563 235.93 309.617C235.571 310.311 234.897 311.265 233.711 311.818C232.319 312.479 230.373 312.533 229.927 311.633C229.72 311.211 229.927 310.81 230.101 310.463C230.286 310.094 230.405 309.834 230.307 309.574C230.199 309.271 229.883 309.097 229.688 308.989C228.209 308.187 224.065 307.948 222.173 308.794C221.846 308.945 221.433 309.184 221.357 309.541C221.303 309.758 221.085 309.899 220.868 309.845C220.65 309.791 220.52 309.574 220.563 309.357C220.694 308.815 221.118 308.382 221.836 308.057C224.011 307.081 228.393 307.363 230.068 308.284C230.329 308.425 230.862 308.718 231.069 309.314C231.286 309.921 231.014 310.452 230.819 310.831C230.742 310.983 230.623 311.221 230.645 311.286C230.764 311.525 232.113 311.688 233.353 311.091C234.331 310.625 234.897 309.834 235.19 309.249C235.288 309.054 235.538 308.967 235.734 309.075C235.897 309.14 235.974 309.281 235.974 309.433Z" fill="#7D662D"/>
<path d="M220.966 311.059C220.966 311.232 220.857 311.384 220.694 311.438C218.084 312.305 216.072 310.278 215.745 309.628C215.637 309.433 215.724 309.184 215.919 309.086C216.115 308.989 216.365 309.064 216.463 309.26C216.615 309.552 218.214 311.416 220.433 310.679C220.65 310.604 220.879 310.723 220.944 310.94C220.966 310.972 220.966 311.015 220.966 311.059Z" fill="#7D662D"/>
<path d="M222.586 300.946L222.586 308.219C222.586 308.447 222.401 308.62 222.184 308.62C221.966 308.62 221.781 308.436 221.781 308.219L221.781 300.946C221.781 300.719 221.966 300.545 222.184 300.545C222.401 300.545 222.586 300.73 222.586 300.946Z" fill="#7D662D"/>
<path d="M229.883 300.946L229.883 308.219C229.883 308.447 229.698 308.62 229.481 308.62C229.253 308.62 229.079 308.436 229.079 308.219L229.079 300.946C229.079 300.719 229.263 300.545 229.481 300.545C229.709 300.545 229.883 300.719 229.883 300.946Z" fill="#7D662D"/>
<path d="M291.933 324.319L293.7 324.319L293.596 326.836L295.614 325.374L296.555 326.951L294.286 328.194L296.555 329.436L295.614 330.982L293.596 329.551L293.711 332.037L291.943 332.037L292.079 329.551L290.029 330.992L289.088 329.447L291.357 328.204L289.088 326.961L290.029 325.385L292.079 326.847L291.933 324.319Z" fill="white"/>
<path d="M291.922 311.38L293.69 311.38L293.585 313.897L295.603 312.435L296.545 314.012L294.275 315.255L296.545 316.497L295.603 318.043L293.585 316.612L293.7 319.098L291.933 319.098L292.069 316.612L290.019 318.053L289.077 316.508L291.347 315.265L289.077 314.022L290.019 312.446L292.069 313.908L291.922 311.38Z" fill="white"/>
<path d="M291.922 298.432L293.69 298.432L293.585 300.938L295.604 299.476L296.545 301.053L294.275 302.295L296.545 303.538L295.604 305.084L293.585 303.653L293.7 306.138L291.933 306.138L292.069 303.653L290.019 305.094L289.077 303.549L291.347 302.306L289.077 301.063L290.019 299.486L292.069 300.948L291.922 298.432Z" fill="white"/>
<path d="M291.912 285.493L293.679 285.493L293.575 288.01L295.593 286.548L296.534 288.125L294.265 289.367L296.534 290.61L295.593 292.155L293.575 290.725L293.69 293.21L291.922 293.21L292.058 290.725L290.008 292.166L289.067 290.62L291.337 289.378L289.067 288.135L290.008 286.558L292.058 288.02L291.912 285.493Z" fill="white"/>
<path d="M291.901 263.574L293.669 263.574L293.564 266.091L295.583 264.629L296.524 266.205L294.254 267.448L296.524 268.691L295.583 270.236L293.564 268.806L293.679 271.291L291.912 271.291L292.048 268.806L289.998 270.247L289.057 268.701L291.326 267.459L289.057 266.216L289.998 264.639L292.048 266.101L291.901 263.574Z" fill="white"/>
<path d="M291.891 250.625L293.658 250.625L293.554 253.141L295.572 251.679L296.513 253.256L294.244 254.499L296.513 255.742L295.572 257.287L293.554 255.856L293.669 258.342L291.901 258.342L292.037 255.856L289.987 257.298L289.046 255.752L291.316 254.509L289.046 253.267L289.987 251.69L292.037 253.152L291.891 250.625Z" fill="white"/>
<path d="M291.891 237.686L293.658 237.686L293.554 240.203L295.572 238.741L296.513 240.318L294.244 241.561L296.513 242.803L295.572 244.349L293.554 242.918L293.669 245.404L291.901 245.404L292.037 242.918L289.987 244.359L289.046 242.814L291.316 241.571L289.046 240.328L289.987 238.752L292.037 240.214L291.891 237.686Z" fill="white"/>
<path d="M291.88 224.737L293.648 224.737L293.543 227.243L295.562 225.781L296.503 227.358L294.233 228.601L296.503 229.843L295.562 231.389L293.543 229.958L293.658 232.444L291.891 232.444L292.027 229.958L289.977 231.399L289.036 229.854L291.305 228.611L289.036 227.368L289.977 225.792L292.027 227.254L291.88 224.737Z" fill="white"/>
<path d="M291.87 202.828L293.637 202.828L293.533 205.345L295.551 203.883L296.492 205.46L294.223 206.702L296.492 207.945L295.551 209.491L293.533 208.06L293.648 210.545L291.88 210.545L292.016 208.06L289.966 209.501L289.025 207.956L291.295 206.713L289.025 205.47L289.966 203.893L292.016 205.355L291.87 202.828Z" fill="white"/>
<path d="M291.859 189.879L293.627 189.879L293.522 192.396L295.541 190.934L296.482 192.511L294.213 193.753L296.482 194.996L295.541 196.541L293.522 195.111L293.637 197.596L291.87 197.596L292.006 195.111L289.956 196.552L289.015 195.006L291.284 193.764L289.015 192.521L289.956 190.944L292.006 192.406L291.859 189.879Z" fill="white"/>
<path d="M291.849 176.93L293.616 176.93L293.512 179.447L295.53 177.985L296.472 179.562L294.202 180.804L296.472 182.047L295.53 183.592L293.512 182.162L293.627 184.647L291.859 184.647L291.995 182.162L289.945 183.603L289.004 182.057L291.274 180.815L289.004 179.572L289.945 177.995L291.995 179.457L291.849 176.93Z" fill="white"/>
<path d="M291.849 163.992L293.616 163.992L293.512 166.498L295.53 165.036L296.472 166.613L294.202 167.856L296.472 169.098L295.53 170.644L293.512 169.213L293.627 171.698L291.859 171.698L291.995 169.213L289.945 170.654L289.004 169.109L291.274 167.866L289.004 166.623L289.945 165.046L291.995 166.508L291.849 163.992Z" fill="white"/>
<path d="M308.697 150.374L306.595 150.374L299.63 143.566C297.8 141.749 296.241 140.83 294.934 140.83C293.846 140.83 292.999 141.164 292.393 141.822C291.786 142.48 291.483 143.294 291.483 144.255C291.483 146.082 292.351 147.398 294.087 148.223L292.822 150.374C291.567 149.769 290.615 148.923 289.977 147.847C289.328 146.772 289.004 145.581 289.004 144.276C289.004 142.657 289.538 141.247 290.604 140.057C291.671 138.856 293.114 138.261 294.913 138.261C296.869 138.261 299.002 139.409 301.303 141.707L306.229 146.636L306.229 137.906L308.718 137.906L308.697 150.374Z" fill="white"/>
<path d="M297.267 126.314C297.538 124.842 298.176 123.63 299.17 122.69C300.164 121.75 301.429 121.281 302.956 121.281C304.838 121.281 306.324 121.928 307.411 123.212C308.499 124.497 309.043 126.063 309.043 127.901C309.043 129.374 308.708 130.679 308.039 131.817C307.369 132.956 306.397 133.77 305.121 134.25L303.845 132.099C305.633 131.525 306.522 130.126 306.522 127.901C306.522 126.711 306.208 125.729 305.581 124.977C304.953 124.225 304.075 123.849 302.956 123.849C301.837 123.849 300.948 124.225 300.32 124.977C299.682 125.729 299.369 126.711 299.369 127.901L299.369 128.559L297.789 129.583L291.734 125.113L291.734 133.697L289.329 133.697L289.318 122.106L291.577 122.116L297.267 126.314Z" fill="white"/>
<path d="M302.59 102.212L304.995 102.212L304.995 104.562L308.677 104.562L308.677 107.131L304.995 107.131L304.995 116.989L302.59 116.989L289.318 110.065L289.318 107.308L302.59 114.232L302.59 107.141L297.12 107.141L297.12 104.572L302.59 104.572L302.59 102.212Z" fill="white"/>
<path d="M296.869 92.1244C296.869 90.2969 297.403 88.7618 298.48 87.4983C299.557 86.2347 301.042 85.6081 302.945 85.6081C304.828 85.6081 306.313 86.2556 307.401 87.54C308.488 88.8245 309.032 90.3909 309.032 92.2288C309.032 93.7013 308.677 95.0171 307.965 96.1762C307.254 97.3354 306.229 98.1499 304.88 98.6094L303.636 96.4268C304.577 96.1658 305.288 95.675 305.78 94.9335C306.271 94.1921 306.512 93.294 306.512 92.2288C306.512 91.0175 306.198 90.0254 305.571 89.2735C304.943 88.5217 304.065 88.1457 302.945 88.1457C301.826 88.1457 300.937 88.5216 300.31 89.284C299.672 90.0358 299.358 91.007 299.358 92.1871L299.358 97.6487L289.318 96.9594L289.308 86.36L291.713 86.36L291.713 94.6098L296.859 94.944L296.869 92.1244Z" fill="white"/>
<path d="M382.004 83.3452L371 83.3452L371 83.3804L373.417 86.7378L371.747 86.7378L369.322 83.3628L369.322 81.8159L382.004 81.8159L382.004 83.3452ZM372.978 78.6782C370.763 78.6782 369.111 76.8853 369.111 74.4946C369.111 72.2271 370.649 70.4429 372.591 70.4429C374.006 70.4429 375.061 71.0845 377.249 73.2026L380.563 76.4106L380.598 76.4106L380.598 70.2319L382.004 70.2319L382.004 78.5991L380.914 78.5991L376.212 74.1343C374.419 72.4292 373.743 72.0249 372.688 72.0249C371.466 72.0249 370.491 73.1411 370.491 74.5386C370.491 76.0239 371.563 77.1489 372.978 77.1489L372.987 77.1489L372.987 78.6782L372.978 78.6782ZM384.702 68.1226L384.702 69.4321L369.322 64.9409L369.322 63.6313L384.702 68.1226ZM372.978 62.6821C370.763 62.6821 369.111 60.8892 369.111 58.4985C369.111 56.231 370.649 54.4468 372.591 54.4468C374.006 54.4468 375.061 55.0884 377.249 57.2065L380.563 60.4146L380.598 60.4146L380.598 54.2358L382.004 54.2358L382.004 62.603L380.914 62.603L376.212 58.1382C374.419 56.4331 373.743 56.0288 372.688 56.0288C371.466 56.0288 370.491 57.145 370.491 58.5425C370.491 60.0278 371.563 61.1528 372.978 61.1528L372.987 61.1528L372.987 62.6821L372.978 62.6821ZM382.004 46.8179L379.368 46.8179L379.368 53.1899L377.935 53.1899C375.931 52.1089 373.619 50.6235 369.322 47.6265L369.322 45.2886L377.979 45.2886L377.979 43.4956L379.368 43.4956L379.368 45.2886L382.004 45.2886L382.004 46.8179ZM377.944 51.6255L377.979 51.6255L377.979 46.8179L370.64 46.8179L370.64 46.8442C374.068 49.2437 376.186 50.6235 377.944 51.6255Z" fill="white"/>
<path d="M353.055 81.5493L354.004 81.5493L354.004 86.7876L345.549 86.7876L345.549 81.5493L346.498 81.5493L346.498 85.7329L349.211 85.7329L349.211 81.7661L350.149 81.7661L350.149 85.7329L353.055 85.7329L353.055 81.5493ZM351.684 78.1567L351.684 78.1802L354.004 79.6509L354.004 80.7817L350.957 78.7075L347.91 80.7466L347.91 79.6099L350.196 78.145L350.196 78.1216L347.91 76.6743L347.91 75.5376L350.916 77.5942L354.004 75.5669L354.004 76.6978L351.684 78.1567ZM354.004 74.6235L347.91 74.6235L347.91 73.604L354.004 73.604L354.004 74.6235ZM346.885 74.1138C346.885 74.4595 346.598 74.7466 346.252 74.7466C345.901 74.7466 345.619 74.4595 345.619 74.1138C345.619 73.7622 345.901 73.4751 346.252 73.4751C346.598 73.4751 346.885 73.7622 346.885 74.1138ZM347.805 69.2681C347.805 67.7153 349.047 66.6606 350.957 66.6606C352.868 66.6606 354.11 67.7095 354.11 69.2446C354.11 70.1177 353.682 70.8208 353.014 71.1841L353.014 71.2075L356.037 71.2075L356.037 72.2271L347.91 72.2271L347.91 71.2603L348.942 71.2603L348.942 71.2368C348.256 70.8618 347.805 70.1528 347.805 69.2681ZM353.213 69.4673C353.213 68.3833 352.34 67.7036 350.957 67.7036C349.58 67.7036 348.702 68.3833 348.702 69.4673C348.702 70.5103 349.604 71.2134 350.957 71.2134C352.317 71.2134 353.213 70.5103 353.213 69.4673ZM354.004 65.6294L347.91 65.6294L347.91 64.6685L348.907 64.6685L348.907 64.645C348.233 64.4458 347.805 63.8833 347.805 63.1685C347.805 62.9927 347.834 62.8403 347.846 62.7583L348.836 62.7583C348.807 62.8403 348.778 63.0571 348.778 63.3032C348.778 64.0942 349.346 64.6099 350.207 64.6099L354.004 64.6099L354.004 65.6294ZM356.284 61.4224C356.284 61.5454 356.272 61.7505 356.248 61.8618L355.393 61.8618C355.416 61.7505 355.422 61.5923 355.422 61.4634C355.422 60.895 355.147 60.5786 354.438 60.3442L354.01 60.2036L347.91 62.4536L347.91 61.3638L352.985 59.6763L352.985 59.6587L347.91 57.9712L347.91 56.8989L354.432 59.2954C355.856 59.8169 356.284 60.3208 356.284 61.4224ZM345.549 53.4712L345.549 50.6294C345.549 48.1216 347.114 46.6392 349.774 46.6392C352.44 46.6392 354.004 48.1157 354.004 50.6294L354.004 53.4712L345.549 53.4712ZM346.498 52.4165L353.055 52.4165L353.055 50.6997C353.055 48.7837 351.883 47.7173 349.785 47.7173C347.67 47.7173 346.498 48.7778 346.498 50.6997L346.498 52.4165ZM353.243 43.4751C353.243 42.5142 352.569 41.7759 351.69 41.7759L351.192 41.7759L351.291 43.4048C351.344 44.2251 351.707 44.6938 352.282 44.6938C352.862 44.6938 353.243 44.2075 353.243 43.4751ZM354.11 43.7036C354.11 44.9165 353.377 45.731 352.282 45.731C351.239 45.731 350.582 44.9282 350.5 43.522L350.401 41.7759L349.891 41.7759C349.147 41.7759 348.702 42.2681 348.702 43.1118C348.702 43.897 349.071 44.3892 349.668 44.5181L349.668 45.5024C348.614 45.4321 347.805 44.5298 347.805 43.0884C347.805 41.6587 348.578 40.7563 349.791 40.7563L354.004 40.7563L354.004 41.7231L352.955 41.7231L352.955 41.7466C353.653 42.1099 354.11 42.8833 354.11 43.7036ZM346.44 39.1333L346.44 38.1138L347.91 38.1138L347.91 36.9302L348.748 36.9302L348.748 38.1138L352.369 38.1138C352.926 38.1138 353.178 37.8794 353.178 37.3579C353.178 37.2407 353.16 37.0063 353.149 36.936L354.004 36.936C354.034 37.0591 354.051 37.3403 354.051 37.5806C354.051 38.6997 353.594 39.1333 352.422 39.1333L348.748 39.1333L348.748 40.0415L347.91 40.0415L347.91 39.1333L346.44 39.1333ZM348.69 33.5728C348.69 34.5278 349.422 35.1958 350.436 35.2603L350.436 31.9497C349.416 31.9731 348.69 32.6118 348.69 33.5728ZM352.258 31.9731L352.258 30.9712C353.325 31.147 354.11 32.1782 354.11 33.5083C354.11 35.2544 352.897 36.3149 350.981 36.3149C349.088 36.3149 347.805 35.2368 347.805 33.5552C347.805 31.9087 349 30.895 350.846 30.895L351.233 30.895L351.233 35.2661L351.291 35.2661C352.457 35.2661 353.225 34.5806 353.225 33.4849C353.225 32.7114 352.832 32.1431 352.258 31.9731Z" fill="white"/>
<path d="M380.088 322.467L382.004 322.467L382.004 330.492L369.322 330.492L369.322 328.224L380.088 328.224L380.088 322.467ZM380.897 313.828C381.758 314.642 382.189 315.738 382.189 317.115C382.189 318.492 381.758 319.587 380.897 320.402C380.03 321.216 378.846 321.624 377.346 321.624C375.852 321.624 374.671 321.213 373.804 320.393C372.931 319.573 372.494 318.48 372.494 317.115C372.494 315.744 372.931 314.651 373.804 313.836C374.671 313.016 375.852 312.606 377.346 312.606C378.846 312.606 380.03 313.013 380.897 313.828ZM379.64 318.785C380.185 318.375 380.457 317.818 380.457 317.115C380.457 316.412 380.185 315.855 379.64 315.445C379.095 315.035 378.33 314.83 377.346 314.83C376.367 314.83 375.606 315.035 375.061 315.445C374.51 315.855 374.235 316.412 374.235 317.115C374.235 317.812 374.51 318.369 375.061 318.785C375.606 319.195 376.367 319.4 377.346 319.4C378.33 319.4 379.095 319.195 379.64 318.785ZM382.004 311.138L369.322 311.138L369.322 308.95L382.004 308.95L382.004 311.138ZM380.501 303.685C380.501 303.058 380.317 302.531 379.948 302.103C379.573 301.669 379.107 301.453 378.55 301.453L377.838 301.453L377.97 303.606C378.005 304.133 378.137 304.543 378.366 304.836C378.588 305.124 378.884 305.267 379.253 305.267C379.634 305.267 379.939 305.124 380.167 304.836C380.39 304.543 380.501 304.16 380.501 303.685ZM382.154 304.344C382.154 305.252 381.893 306 381.371 306.585C380.85 307.166 380.173 307.456 379.341 307.456C378.515 307.456 377.862 307.151 377.381 306.542C376.901 305.926 376.625 305.05 376.555 303.914L376.414 301.453L375.746 301.453C375.26 301.453 374.882 301.608 374.613 301.918C374.343 302.223 374.208 302.648 374.208 303.193C374.208 303.703 374.323 304.119 374.551 304.441C374.78 304.763 375.09 304.959 375.483 305.03L375.483 307.06C374.598 307.013 373.88 306.635 373.329 305.926C372.773 305.211 372.494 304.271 372.494 303.105C372.494 301.951 372.776 301.028 373.338 300.336C373.901 299.639 374.651 299.291 375.588 299.291L382.004 299.291L382.004 301.4L380.519 301.4L380.519 301.444C381.017 301.708 381.415 302.106 381.714 302.639C382.007 303.172 382.154 303.741 382.154 304.344ZM371.158 291.433L375.492 291.433L375.492 288.875C375.492 288.155 375.301 287.595 374.92 287.197C374.539 286.798 374.006 286.599 373.321 286.599C372.653 286.599 372.125 286.807 371.739 287.223C371.352 287.639 371.158 288.205 371.158 288.919L371.158 291.433ZM377.232 291.433L382.004 291.433L382.004 293.701L369.322 293.701L369.322 288.665C369.322 287.299 369.676 286.227 370.385 285.448C371.088 284.668 372.049 284.279 373.268 284.279C374.117 284.279 374.867 284.49 375.518 284.912C376.162 285.333 376.619 285.919 376.889 286.669L382.004 283.901L382.004 286.485L377.232 288.981L377.232 291.433ZM380.897 275.314C381.758 276.128 382.189 277.224 382.189 278.601C382.189 279.978 381.758 281.074 380.897 281.888C380.03 282.703 378.846 283.11 377.346 283.11C375.852 283.11 374.671 282.7 373.804 281.879C372.931 281.059 372.494 279.966 372.494 278.601C372.494 277.23 372.931 276.137 373.804 275.323C374.671 274.502 375.852 274.092 377.346 274.092C378.846 274.092 380.03 274.5 380.897 275.314ZM379.64 280.271C380.185 279.861 380.457 279.304 380.457 278.601C380.457 277.898 380.185 277.341 379.64 276.931C379.095 276.521 378.33 276.316 377.346 276.316C376.367 276.316 375.606 276.521 375.061 276.931C374.51 277.341 374.235 277.898 374.235 278.601C374.235 279.298 374.51 279.855 375.061 280.271C375.606 280.681 376.367 280.886 377.346 280.886C378.33 280.886 379.095 280.681 379.64 280.271ZM375.36 272.853C374.504 272.853 373.813 272.507 373.285 271.816C372.758 271.125 372.494 270.213 372.494 269.083C372.494 267.993 372.764 267.108 373.303 266.428C373.836 265.743 374.534 265.385 375.395 265.356L375.395 267.395C374.991 267.43 374.674 267.6 374.446 267.905C374.217 268.209 374.103 268.617 374.103 269.126C374.103 269.607 374.208 269.994 374.419 270.287C374.624 270.58 374.897 270.726 375.237 270.726C375.752 270.726 376.118 270.281 376.335 269.39L376.704 267.729C376.921 266.797 377.226 266.132 377.618 265.734C378.011 265.335 378.553 265.136 379.244 265.136C380.123 265.136 380.835 265.505 381.38 266.244C381.919 266.982 382.189 267.94 382.189 269.118C382.189 270.278 381.925 271.212 381.398 271.921C380.865 272.625 380.153 273.014 379.262 273.09L379.262 270.937C379.69 270.873 380.018 270.679 380.246 270.357C380.475 270.029 380.589 269.589 380.589 269.039C380.589 268.505 380.49 268.086 380.29 267.782C380.085 267.471 379.81 267.316 379.464 267.316C379.195 267.316 378.981 267.413 378.823 267.606C378.659 267.793 378.518 268.113 378.401 268.564L378.005 270.26C377.601 271.989 376.719 272.853 375.36 272.853ZM374.191 259.722C374.191 260.332 374.402 260.841 374.824 261.251C375.24 261.656 375.776 261.881 376.432 261.928L376.432 257.578C375.77 257.601 375.231 257.809 374.815 258.202C374.399 258.594 374.191 259.101 374.191 259.722ZM379.218 257.569L379.218 255.521C380.103 255.662 380.821 256.11 381.371 256.866C381.916 257.622 382.189 258.547 382.189 259.643C382.189 261.038 381.761 262.133 380.906 262.93C380.044 263.727 378.869 264.125 377.381 264.125C375.905 264.125 374.721 263.73 373.83 262.939C372.94 262.142 372.494 261.073 372.494 259.731C372.494 258.413 372.919 257.367 373.769 256.593C374.613 255.82 375.743 255.433 377.161 255.433L377.873 255.433L377.873 261.946L378.005 261.946C378.755 261.946 379.359 261.735 379.816 261.313C380.273 260.885 380.501 260.314 380.501 259.599C380.501 259.095 380.387 258.662 380.159 258.298C379.924 257.929 379.611 257.686 379.218 257.569Z" fill="white"/>
<path d="M354.145 327.307C354.145 329.639 352.451 331.116 349.774 331.116C347.119 331.116 345.408 329.622 345.408 327.307C345.408 325.467 346.528 324.067 348.215 323.797L348.215 324.864C347.108 325.133 346.381 326.1 346.381 327.307C346.381 328.959 347.717 330.032 349.774 330.032C351.848 330.032 353.172 328.971 353.172 327.301C353.172 326.059 352.575 325.168 351.543 324.864L351.543 323.797C353.213 324.184 354.145 325.438 354.145 327.307ZM353.242 320.698C353.242 319.737 352.569 318.999 351.69 318.999L351.192 318.999L351.291 320.627C351.344 321.448 351.707 321.917 352.282 321.917C352.862 321.917 353.242 321.43 353.242 320.698ZM354.11 320.926C354.11 322.139 353.377 322.954 352.282 322.954C351.239 322.954 350.582 322.151 350.5 320.745L350.401 318.999L349.891 318.999C349.147 318.999 348.701 319.491 348.701 320.334C348.701 321.12 349.071 321.612 349.668 321.741L349.668 322.725C348.614 322.655 347.805 321.752 347.805 320.311C347.805 318.881 348.578 317.979 349.791 317.979L354.004 317.979L354.004 318.946L352.955 318.946L352.955 318.969C353.653 319.333 354.11 320.106 354.11 320.926ZM354.004 316.684L347.91 316.684L347.91 315.723L348.907 315.723L348.907 315.7C348.233 315.5 347.805 314.938 347.805 314.223C347.805 314.047 347.834 313.895 347.846 313.813L348.836 313.813C348.807 313.895 348.778 314.112 348.778 314.358C348.778 315.149 349.346 315.665 350.207 315.665L354.004 315.665L354.004 316.684ZM354.11 310.965C354.11 312.518 352.867 313.573 350.957 313.573C349.047 313.573 347.805 312.524 347.805 310.989C347.805 310.116 348.233 309.413 348.901 309.049L348.901 309.026L345.549 309.026L345.549 308.006L354.004 308.006L354.004 308.979L352.973 308.979L352.973 308.997C353.676 309.389 354.11 310.086 354.11 310.965ZM348.701 310.772C348.701 311.85 349.58 312.53 350.957 312.53C352.34 312.53 353.213 311.85 353.213 310.772C353.213 309.723 352.323 309.02 350.957 309.02C349.598 309.02 348.701 309.723 348.701 310.772ZM354.004 297.26L354.004 298.315L350.155 298.315L350.155 302.956L354.004 302.956L354.004 304.01L345.549 304.01L345.549 302.956L349.205 302.956L349.205 298.315L345.549 298.315L345.549 297.26L354.004 297.26ZM354.11 293.252C354.11 294.94 352.897 296.077 350.957 296.077C349.012 296.077 347.805 294.94 347.805 293.252C347.805 291.571 349.012 290.434 350.957 290.434C352.897 290.434 354.11 291.571 354.11 293.252ZM353.213 293.252C353.213 292.174 352.393 291.471 350.957 291.471C349.522 291.471 348.701 292.174 348.701 293.252C348.701 294.331 349.522 295.04 350.957 295.04C352.393 295.04 353.213 294.331 353.213 293.252ZM354.004 289.35L345.549 289.35L345.549 288.331L354.004 288.331L354.004 289.35ZM354.11 284.645C354.11 286.198 352.867 287.252 350.957 287.252C349.047 287.252 347.805 286.204 347.805 284.668C347.805 283.795 348.233 283.092 348.901 282.729L348.901 282.706L345.549 282.706L345.549 281.686L354.004 281.686L354.004 282.659L352.973 282.659L352.973 282.676C353.676 283.069 354.11 283.766 354.11 284.645ZM348.701 284.452C348.701 285.53 349.58 286.209 350.957 286.209C352.34 286.209 353.213 285.53 353.213 284.452C353.213 283.403 352.323 282.7 350.957 282.7C349.598 282.7 348.701 283.403 348.701 284.452ZM348.69 277.866C348.69 278.821 349.422 279.489 350.436 279.553L350.436 276.243C349.416 276.266 348.69 276.905 348.69 277.866ZM352.258 276.266L352.258 275.264C353.325 275.44 354.11 276.471 354.11 277.801C354.11 279.547 352.897 280.608 350.981 280.608C349.088 280.608 347.805 279.53 347.805 277.848C347.805 276.202 349 275.188 350.846 275.188L351.233 275.188L351.233 279.559L351.291 279.559C352.457 279.559 353.225 278.874 353.225 277.778C353.225 277.004 352.832 276.436 352.258 276.266ZM354.004 274.157L347.91 274.157L347.91 273.196L348.907 273.196L348.907 273.172C348.233 272.973 347.805 272.411 347.805 271.696C347.805 271.52 347.834 271.368 347.846 271.286L348.836 271.286C348.807 271.368 348.778 271.584 348.778 271.831C348.778 272.622 349.346 273.137 350.207 273.137L354.004 273.137L354.004 274.157ZM354.004 267.993L347.91 267.993L347.91 267.032L348.883 267.032L348.883 267.008C348.227 266.668 347.805 266.018 347.805 265.075C347.805 263.739 348.666 262.965 350.049 262.965L354.004 262.965L354.004 263.985L350.231 263.985C349.246 263.985 348.707 264.448 348.707 265.385C348.707 266.346 349.387 266.973 350.418 266.973L354.004 266.973L354.004 267.993ZM353.242 259.655C353.242 258.694 352.569 257.956 351.69 257.956L351.192 257.956L351.291 259.584C351.344 260.405 351.707 260.874 352.282 260.874C352.862 260.874 353.242 260.387 353.242 259.655ZM354.11 259.883C354.11 261.096 353.377 261.911 352.282 261.911C351.239 261.911 350.582 261.108 350.5 259.702L350.401 257.956L349.891 257.956C349.147 257.956 348.701 258.448 348.701 259.292C348.701 260.077 349.071 260.569 349.668 260.698L349.668 261.682C348.614 261.612 347.805 260.709 347.805 259.268C347.805 257.838 348.578 256.936 349.791 256.936L354.004 256.936L354.004 257.903L352.955 257.903L352.955 257.926C353.653 258.29 354.11 259.063 354.11 259.883ZM354.004 255.641L347.91 255.641L347.91 254.68L348.883 254.68L348.883 254.657C348.239 254.37 347.805 253.749 347.805 252.928C347.805 252.096 348.227 251.481 348.965 251.217L348.965 251.194C348.239 250.854 347.805 250.139 347.805 249.284C347.805 248.077 348.59 247.297 349.797 247.297L354.004 247.297L354.004 248.317L350.032 248.317C349.2 248.317 348.707 248.78 348.707 249.583C348.707 250.391 349.305 250.959 350.131 250.959L354.004 250.959L354.004 251.979L349.92 251.979C349.188 251.979 348.707 252.471 348.707 253.227C348.707 254.036 349.34 254.622 350.184 254.622L354.004 254.622L354.004 255.641ZM348.69 243.553C348.69 244.508 349.422 245.176 350.436 245.241L350.436 241.93C349.416 241.954 348.69 242.592 348.69 243.553ZM352.258 241.954L352.258 240.952C353.325 241.127 354.11 242.159 354.11 243.489C354.11 245.235 352.897 246.295 350.981 246.295C349.088 246.295 347.805 245.217 347.805 243.536C347.805 241.889 349 240.875 350.846 240.875L351.233 240.875L351.233 245.247L351.291 245.247C352.457 245.247 353.225 244.561 353.225 243.465C353.225 242.692 352.832 242.124 352.258 241.954Z" fill="white"/>
</g>
<defs>
<linearGradient id="paint0_linear_2_807" x1="357.306" y1="340.147" x2="357.182" y2="113.031" gradientUnits="userSpaceOnUse">
<stop stop-color="#02CAFD"/>
<stop offset="1" stop-color="#83F8A6"/>
</linearGradient>
<linearGradient id="paint1_linear_2_807" x1="274.391" y1="356.619" x2="274.376" y2="254.449" gradientUnits="userSpaceOnUse">
<stop stop-color="#02CAFD"/>
<stop offset="1" stop-color="#83F8A6"/>
</linearGradient>
<linearGradient id="paint2_linear_2_807" x1="206.292" y1="264.202" x2="206.236" y2="174.229" gradientUnits="userSpaceOnUse">
<stop stop-color="#02CAFD"/>
<stop offset="1" stop-color="#83F8A6"/>
</linearGradient>
<linearGradient id="paint3_linear_2_807" x1="277.885" y1="152.895" x2="277.854" y2="3.63784" gradientUnits="userSpaceOnUse">
<stop stop-color="#02CAFD"/>
<stop offset="1" stop-color="#83F8A6"/>
</linearGradient>
<clipPath id="clip0_2_807">
<rect x="410.004" y="5.60791" width="350" height="222" rx="16" transform="rotate(90 410.004 5.60791)" fill="white"/>
</clipPath>
</defs>
</svg>
